# xmcd
#
# Track frame offsets: 
#        150
#        17038
#        43489
#        60963
#
# Disc length: 1060 seconds
#
# Revision: 1
# Processed by: cddbd v1.5.2PL0 Copyright (c) Steve Scherf et al.
# Submitted via: ExactAudioCopy v1.0b3
#
DISCID=2d042204
DTITLE=Coma feat. LTG - Requiem (Of A Junkie's Dream)
DYEAR=1998
DGENRE=Rap
TTITLE0=Requiem (Of A Junkie's Dream) (Radio Mix)
TTITLE1=Requiem (Of A Junkie's Dream) (Have Mercy Club Mix)
TTITLE2=Requiem (Of A Junkie's Dream) (Emergency Mix)
TTITLE3=Requiem (Of A Junkie's Dream) (Street Mix)
EXTD=
EXTT0=
EXTT1=
EXTT2=
EXTT3=
PLAYORDER=
